<svg width="79" height="65" viewBox="0 0 79 65" fill="none" xmlns="http://www.w3.org/2000/svg">
<path d="M76.7038 27.0852C76.3086 25.8861 75.9342 24.8731 75.6429 23.8188C75.4557 23.1573 75.0813 22.9712 74.4364 22.9919C72.3979 23.0746 70.3385 22.9712 68.3207 23.2193C66.303 23.4674 64.93 22.8678 64.0148 21.0693C63.7443 20.5318 63.2867 20.0563 62.8915 19.5808C62.3506 18.9399 62.2466 18.299 62.5586 17.4928C63.4531 15.2187 64.2228 12.9033 65.1173 10.6086C65.4085 9.86437 65.2629 9.40956 64.5972 8.97542C63.3699 8.14849 62.2258 7.25955 61.0401 6.43262C59.376 5.29559 59.8336 5.2129 58.1695 6.45329C56.3389 7.81772 54.5084 9.16148 52.6986 10.5673C52.1162 11.0221 51.5545 11.0841 50.8681 10.836C49.7656 10.4225 48.6631 10.0091 47.519 9.76101C46.5413 9.5336 46.0837 8.97542 45.834 8.0658C45.1684 5.7504 44.4195 3.45567 43.7539 1.14027C43.5667 0.478726 43.2338 0.147955 42.5474 0.127281C40.8416 0.106608 39.1567 0.106608 37.4717 0.0239153C36.5357 -0.0174311 36.0156 0.313341 35.7452 1.24364C35.1211 3.49702 34.3723 5.70905 33.7274 7.96244C33.4778 8.85138 33.0618 9.36821 32.1049 9.57495C30.8984 9.8437 29.6919 10.2158 28.5478 10.6706C27.7573 10.9807 27.1749 10.836 26.5508 10.3605C24.5123 8.81004 22.4529 7.30089 20.4351 5.72973C19.8943 5.31626 19.4782 5.31626 18.9582 5.70905C17.5021 6.76339 16.0251 7.79705 14.5482 8.78936C13.9242 9.20283 13.9034 9.63697 14.153 10.2778C15.0683 12.6553 15.9419 15.0534 16.7532 17.4514C16.8988 17.8856 16.7532 18.5471 16.5036 18.9399C15.7547 20.0976 14.8394 21.152 14.0698 22.289C13.6121 22.9505 13.0713 23.2193 12.26 23.1779C9.70142 23.0746 7.1428 23.0125 4.56339 22.9919C4.20976 22.9919 3.64811 23.1573 3.5441 23.4053C3.06566 24.563 2.71203 25.7621 2.25439 27.0852C2.81604 27.0852 3.19047 27.0852 3.58571 27.0852C7.39242 27.0852 11.2199 27.0025 15.0267 27.1265C16.5244 27.1679 17.5229 26.8784 18.0221 25.39C18.1885 24.9145 18.563 24.501 18.8334 24.0876C25.1155 14.4538 37.9918 10.5673 48.6215 15.0327C54.1339 17.3481 58.2735 21.1106 61.1233 26.3409C61.2897 26.6717 61.7474 27.0645 62.0594 27.0645C66.8646 27.1058 71.6906 27.0852 76.7038 27.0852Z" fill="white"/>
<path d="M76.7037 27.0853C71.6697 27.0853 66.8645 27.106 62.0385 27.044C61.7264 27.044 61.2688 26.6512 61.1024 26.3204C58.2525 21.0901 54.113 17.3276 48.6005 15.0122C37.9916 10.5674 25.1154 14.454 18.7916 24.067C18.5004 24.5012 18.126 24.894 17.9804 25.3695C17.4811 26.8579 16.4826 27.168 14.9849 27.106C11.1782 26.982 7.37148 27.0647 3.54396 27.0647C3.16953 27.0647 2.7951 27.0647 2.21265 27.0647C2.64948 25.7622 3.00311 24.5425 3.50235 23.3848C3.60636 23.1367 4.16801 22.9714 4.52164 22.9714C7.08025 22.992 9.65967 23.0541 12.2183 23.1574C13.0504 23.1988 13.5704 22.93 14.028 22.2685C14.8185 21.1314 15.713 20.0771 16.4618 18.9194C16.7115 18.5266 16.8571 17.8651 16.7115 17.4309C15.9002 15.0122 15.0057 12.6347 14.1112 10.2573C13.8616 9.61646 13.9032 9.18232 14.5065 8.76886C16.0042 7.77654 17.4603 6.72221 18.9164 5.68854C19.4365 5.31643 19.8525 5.29575 20.3934 5.70922C22.4111 7.28038 24.4913 8.78953 26.5091 10.34C27.1331 10.8155 27.7156 10.9809 28.506 10.6501C29.6501 10.1953 30.8566 9.82319 32.0631 9.55444C33.02 9.3477 33.4361 8.83087 33.6857 7.94193C34.3097 5.68854 35.0586 3.47651 35.7034 1.22313C35.9739 0.292833 36.4939 -0.0379389 37.43 0.0034075C39.1149 0.0861004 40.8207 0.0861004 42.5056 0.106774C43.2129 0.106774 43.5249 0.437545 43.7121 1.11976C44.3778 3.43516 45.1266 5.72989 45.7923 8.04529C46.0419 8.95491 46.4996 9.51309 47.4772 9.7405C48.6213 10.0092 49.7238 10.402 50.8263 10.8155C51.5128 11.0843 52.0744 11.0016 52.6569 10.5468C54.4666 9.16165 56.2972 7.79721 58.1277 6.43278C59.7919 5.19239 59.355 5.27508 60.9984 6.41211C62.1841 7.23904 63.349 8.12799 64.5555 8.91357C65.2211 9.34771 65.3667 9.80252 65.0755 10.5468C64.2018 12.8208 63.4114 15.1362 62.5169 17.4309C62.2049 18.2372 62.3089 18.8781 62.8497 19.5189C63.245 19.9944 63.6818 20.4699 63.973 21.0074C64.8883 22.806 66.2612 23.4055 68.279 23.1574C70.2967 22.9093 72.3561 23.0127 74.3947 22.93C75.0395 22.9093 75.414 23.1161 75.6012 23.7569C75.9548 24.8733 76.3293 25.8863 76.7037 27.0853Z" fill="#FF3811"/>
<path d="M55.5691 34.0731C53.1145 31.6543 50.6391 29.2148 48.1637 26.7547C47.7269 26.3206 47.4564 26.61 47.1444 26.9201C45.9795 28.0985 44.8146 29.2769 43.6289 30.4139C42.8801 31.1375 42.0688 31.8403 41.2783 32.5432C41.3407 32.6466 41.4031 32.7293 41.4655 32.8327C43.7745 32.3778 45.7923 32.8533 47.4564 34.4865C49.0998 36.1197 49.5366 38.1664 49.1206 40.3784C51.284 38.2697 53.3849 36.2024 55.5691 34.0731Z" fill="white"/>
<path d="M37.6381 32.7085C37.3261 32.3571 37.1805 32.1297 36.9933 31.9436C35.3291 30.2897 33.6234 28.6772 32.0008 26.982C31.4184 26.3825 31.0648 26.4032 30.5031 26.982C28.3397 29.1734 26.1764 31.3234 23.9506 33.4527C23.3889 33.9902 23.5137 34.321 23.9922 34.7965C25.7395 36.5124 27.4661 38.2489 29.2134 39.9648C29.359 40.1095 29.567 40.1922 29.8167 40.3576C29.0886 35.396 32.5833 31.9849 37.6381 32.7085Z" fill="white"/>
<path d="M29.5461 24.6044C26.9043 27.2713 24.3457 29.8761 21.8079 32.4396C21.9951 32.6877 22.2447 33.0391 22.4735 33.3285C25.1569 30.6617 27.7364 28.1189 30.4822 25.4107C30.191 25.1626 29.8581 24.8732 29.5461 24.6044Z" fill="white"/>
<path d="M59.0638 30.6619C59.0014 30.5585 58.9598 30.4345 58.8766 30.3311C56.526 27.995 54.1962 25.6796 51.8456 23.3435C51.4504 22.9507 51.1591 22.9301 50.7223 23.3435C50.2647 23.7983 50.3479 24.1084 50.7639 24.5219C52.8649 26.5686 54.9243 28.6359 57.0044 30.7032C57.3373 31.034 57.6909 31.3441 58.1693 31.7989C58.4814 31.4061 58.731 31.096 59.0638 30.6619Z" fill="white"/>
<path d="M57.3996 32.3155C54.9866 29.9175 52.6152 27.5814 50.2438 25.204C49.8486 24.8112 49.5157 24.5011 48.9749 25.0799C48.4548 25.6381 48.7461 25.9689 49.1621 26.3617C51.2839 28.4497 53.3849 30.5376 55.4858 32.6256C56.4219 33.5766 56.4427 33.5766 57.3996 32.3155Z" fill="white"/>
<path d="M28.6726 23.8394C27.7365 22.7024 27.7573 22.7024 26.7588 23.6741C24.7203 25.7 22.6817 27.7053 20.6639 29.7313C19.6862 30.703 19.707 30.827 20.8719 31.4885C23.4721 28.9457 26.0516 26.4029 28.6726 23.8394Z" fill="white"/>
<path d="M55.5691 34.0729C53.3849 36.2229 51.284 38.2696 49.1206 40.3989C49.5366 38.1869 49.0998 36.1609 47.4564 34.507C45.7923 32.8532 43.7537 32.3984 41.4655 32.8532C41.4031 32.7498 41.3407 32.6671 41.2783 32.5637C42.0688 31.8609 42.8593 31.1786 43.6289 30.4344C44.8146 29.2767 45.9795 28.119 47.1444 26.9406C47.4564 26.6305 47.7269 26.3411 48.1637 26.7752C50.6391 29.194 53.1145 31.6335 55.5691 34.0729ZM49.8902 30.7238C49.4534 31.3027 48.9334 31.6955 48.975 31.9849C49.0374 32.3363 49.5782 32.6258 49.911 32.9359C50.2023 32.6258 50.7015 32.3157 50.7223 31.9849C50.7639 31.6541 50.3063 31.282 49.8902 30.7238Z" fill="white"/>
<path d="M37.6381 32.7083C32.5625 31.9848 29.0886 35.3959 29.8167 40.3781C29.567 40.2127 29.359 40.13 29.2134 39.9853C27.4661 38.2694 25.7395 36.5329 23.9922 34.817C23.5137 34.3415 23.3889 34.0108 23.9506 33.4733C26.1555 31.3439 28.3397 29.1732 30.5031 27.0025C31.0648 26.4237 31.4184 26.403 32.0008 27.0025C33.6234 28.6977 35.3291 30.3102 36.9933 31.9641C37.1805 32.1295 37.3469 32.3569 37.6381 32.7083ZM30.3783 32.0468C29.7959 31.5713 29.4214 31.0545 29.151 31.0958C28.7766 31.1579 28.4645 31.6747 28.1317 31.9848C28.4437 32.2949 28.7142 32.791 29.0678 32.8531C29.359 32.8944 29.7542 32.4396 30.3783 32.0468Z" fill="white"/>
<path d="M29.5461 24.6044C29.8581 24.8732 30.191 25.1419 30.4822 25.4107C27.7572 28.1189 25.1777 30.6617 22.4735 33.3285C22.2447 33.0184 21.9743 32.667 21.8079 32.4396C24.3457 29.8761 26.9251 27.2713 29.5461 24.6044Z" fill="white"/>
<path d="M59.0639 30.6617C58.7311 31.0958 58.4815 31.4059 58.1695 31.8194C57.691 31.3646 57.3374 31.0545 57.0046 30.7237C54.9244 28.6564 52.865 26.5891 50.7641 24.5424C50.3272 24.1289 50.244 23.8189 50.7225 23.364C51.1385 22.9506 51.4505 22.9712 51.8457 23.364C54.1755 25.7001 56.5261 28.0155 58.8767 30.3516C58.9599 30.4136 59.0015 30.5583 59.0639 30.6617Z" fill="white"/>
<path d="M57.3996 32.3155C56.4635 33.5766 56.4427 33.5766 55.4858 32.6256C53.3849 30.5376 51.2839 28.429 49.1621 26.3617C48.7461 25.9689 48.4548 25.6381 48.9749 25.0799C49.5157 24.5011 49.8486 24.8112 50.2438 25.204C52.6152 27.5814 54.9866 29.9175 57.3996 32.3155Z" fill="white"/>
<path d="M28.6726 23.8394C26.0516 26.4236 23.4721 28.9457 20.8719 31.5092C19.707 30.8477 19.6862 30.7236 20.6639 29.752C22.7025 27.726 24.7411 25.7207 26.7588 23.6947C27.7573 22.7024 27.7573 22.7024 28.6726 23.8394Z" fill="white"/>
<path d="M49.8903 30.7237C50.2855 31.3025 50.7432 31.654 50.7224 31.9848C50.7016 32.3155 50.2023 32.6256 49.9111 32.9357C49.5783 32.6256 49.0374 32.3569 48.975 31.9848C48.9334 31.6953 49.4534 31.3025 49.8903 30.7237Z" fill="white"/>
<path d="M30.3782 32.047C29.7542 32.4398 29.3797 32.8946 29.0469 32.8326C28.6933 32.7912 28.4229 32.2744 28.1108 31.9643C28.4437 31.6542 28.7557 31.1374 29.1301 31.0753C29.4213 31.0547 29.7958 31.5922 30.3782 32.047Z" fill="white"/>
<path d="M5.92918 51.2634C5.08889 51.2634 4.43827 51.5803 3.97731 52.2141C3.51635 52.8431 3.28587 53.7218 3.28587 54.8502C3.28587 57.1982 4.16697 58.3722 5.92918 58.3722C6.66864 58.3722 7.56415 58.1874 8.61571 57.8176V59.6903C7.75141 60.0504 6.78628 60.2305 5.72031 60.2305C4.18858 60.2305 3.01697 59.7671 2.20549 58.8404C1.39401 57.9089 0.988273 56.574 0.988273 54.8358C0.988273 53.741 1.18754 52.7831 1.58608 51.962C1.98462 51.1361 2.55602 50.5047 3.30027 50.0678C4.04933 49.626 4.92564 49.4051 5.92918 49.4051C6.95194 49.4051 7.97949 49.6524 9.01185 50.147L8.2916 51.962C7.89786 51.7747 7.50173 51.6115 7.10319 51.4722C6.70465 51.333 6.31332 51.2634 5.92918 51.2634ZM15.8038 60.0864L15.3789 58.9916H15.3212C14.9515 59.4574 14.5698 59.7815 14.176 59.964C13.7871 60.1416 13.2781 60.2305 12.6491 60.2305C11.876 60.2305 11.2662 60.0096 10.8197 59.5678C10.3779 59.1261 10.157 58.4971 10.157 57.6808C10.157 56.8261 10.4547 56.1971 11.0502 55.7937C11.6504 55.3856 12.5531 55.1599 13.7583 55.1167L15.1556 55.0735V54.7206C15.1556 53.9043 14.7378 53.4961 13.9023 53.4961C13.2589 53.4961 12.5027 53.6906 11.6336 54.0795L10.9061 52.5958C11.8328 52.1109 12.8604 51.8684 13.9888 51.8684C15.0691 51.8684 15.8974 52.1037 16.4736 52.5742C17.0498 53.0448 17.3379 53.7602 17.3379 54.7206V60.0864H15.8038ZM15.1556 56.3555L14.3057 56.3843C13.6671 56.4036 13.1917 56.5188 12.8796 56.7301C12.5675 56.9413 12.4114 57.263 12.4114 57.6952C12.4114 58.3146 12.7667 58.6243 13.4774 58.6243C13.9864 58.6243 14.3921 58.4779 14.6946 58.185C15.0019 57.8921 15.1556 57.5031 15.1556 57.0182V56.3555ZM24.1011 51.8828C24.3988 51.8828 24.6461 51.9044 24.8429 51.9476L24.6773 54.0075C24.4996 53.9595 24.2835 53.9355 24.029 53.9355C23.328 53.9355 22.7806 54.1156 22.3869 54.4757C21.9979 54.8358 21.8035 55.34 21.8035 55.9882V60.0864H19.6067V52.034H21.2705L21.5946 53.3881H21.7026C21.9523 52.9368 22.2884 52.5742 22.711 52.3005C23.1383 52.022 23.6017 51.8828 24.1011 51.8828ZM39.0462 54.7206C39.0462 56.454 38.5517 57.7816 37.5625 58.7035C36.5782 59.6255 35.1545 60.0864 33.2915 60.0864H30.3096V49.5564H33.6156C35.3346 49.5564 36.6694 50.0101 37.6202 50.9177C38.5709 51.8252 39.0462 53.0928 39.0462 54.7206ZM36.727 54.7782C36.727 52.5166 35.7283 51.3858 33.7308 51.3858H32.5424V58.2426H33.5003C35.6515 58.2426 36.727 57.0878 36.727 54.7782ZM42.8059 56.0458C42.8059 56.8429 42.9356 57.4455 43.1949 57.8537C43.459 58.2618 43.8863 58.4659 44.4769 58.4659C45.0627 58.4659 45.4829 58.2642 45.7374 57.8609C45.9966 57.4527 46.1263 56.8477 46.1263 56.0458C46.1263 55.2488 45.9966 54.6509 45.7374 54.2524C45.4781 53.8539 45.0531 53.6546 44.4625 53.6546C43.8767 53.6546 43.4542 53.8539 43.1949 54.2524C42.9356 54.6461 42.8059 55.2439 42.8059 56.0458ZM48.3735 56.0458C48.3735 57.3567 48.0278 58.3818 47.3363 59.1213C46.6449 59.8607 45.6821 60.2305 44.4481 60.2305C43.675 60.2305 42.9932 60.0624 42.4026 59.7263C41.812 59.3854 41.3582 58.898 41.0413 58.2642C40.7244 57.6304 40.566 56.8909 40.566 56.0458C40.566 54.7302 40.9093 53.7074 41.5959 52.9776C42.2826 52.2477 43.2477 51.8828 44.4913 51.8828C45.2644 51.8828 45.9462 52.0508 46.5368 52.387C47.1274 52.7231 47.5812 53.2056 47.8981 53.8347C48.215 54.4637 48.3735 55.2007 48.3735 56.0458ZM53.4584 60.2305C50.952 60.2305 49.6987 58.8548 49.6987 56.1034C49.6987 54.735 50.0396 53.6906 50.7215 52.9704C51.4033 52.2453 52.3805 51.8828 53.6529 51.8828C54.5844 51.8828 55.4199 52.0652 56.1594 52.4302L55.5111 54.13C55.1654 53.9907 54.8437 53.8779 54.546 53.7914C54.2483 53.7002 53.9506 53.6546 53.6529 53.6546C52.5101 53.6546 51.9387 54.4661 51.9387 56.089C51.9387 57.664 52.5101 58.4515 53.6529 58.4515C54.0754 58.4515 54.4668 58.3962 54.8269 58.2858C55.187 58.1706 55.5472 57.9929 55.9073 57.7528V59.6327C55.552 59.8583 55.1918 60.0144 54.8269 60.1008C54.4668 60.1873 54.0106 60.2305 53.4584 60.2305ZM61.1723 58.4803C61.5564 58.4803 62.0174 58.3962 62.5552 58.2282V59.8631C62.0078 60.108 61.3356 60.2305 60.5385 60.2305C59.6598 60.2305 59.0188 60.0096 58.6154 59.5678C58.2169 59.1213 58.0176 58.4539 58.0176 57.5656V53.6834H56.966V52.7543L58.1761 52.0196L58.8099 50.3198H60.2144V52.034H62.4688V53.6834H60.2144V57.5656C60.2144 57.8777 60.3008 58.1081 60.4737 58.257C60.6513 58.4058 60.8842 58.4803 61.1723 58.4803ZM65.9404 56.0458C65.9404 56.8429 66.07 57.4455 66.3293 57.8537C66.5934 58.2618 67.0207 58.4659 67.6113 58.4659C68.1971 58.4659 68.6173 58.2642 68.8718 57.8609C69.1311 57.4527 69.2607 56.8477 69.2607 56.0458C69.2607 55.2488 69.1311 54.6509 68.8718 54.2524C68.6125 53.8539 68.1875 53.6546 67.5969 53.6546C67.0111 53.6546 66.5886 53.8539 66.3293 54.2524C66.07 54.6461 65.9404 55.2439 65.9404 56.0458ZM71.5079 56.0458C71.5079 57.3567 71.1622 58.3818 70.4707 59.1213C69.7793 59.8607 68.8165 60.2305 67.5825 60.2305C66.8095 60.2305 66.1276 60.0624 65.537 59.7263C64.9464 59.3854 64.4926 58.898 64.1757 58.2642C63.8588 57.6304 63.7004 56.8909 63.7004 56.0458C63.7004 54.7302 64.0437 53.7074 64.7303 52.9776C65.417 52.2477 66.3821 51.8828 67.6257 51.8828C68.3988 51.8828 69.0806 52.0508 69.6712 52.387C70.2618 52.7231 70.7156 53.2056 71.0325 53.8347C71.3494 54.4637 71.5079 55.2007 71.5079 56.0458ZM77.8173 51.8828C78.115 51.8828 78.3622 51.9044 78.5591 51.9476L78.3935 54.0075C78.2158 53.9595 77.9997 53.9355 77.7452 53.9355C77.0442 53.9355 76.4968 54.1156 76.1031 54.4757C75.7141 54.8358 75.5197 55.34 75.5197 55.9882V60.0864H73.3229V52.034H74.9867L75.3108 53.3881H75.4188C75.6685 52.9368 76.0046 52.5742 76.4272 52.3005C76.8545 52.022 77.3179 51.8828 77.8173 51.8828Z" fill="white"/>
</svg>
